HIERARCHY
ROOT Hips
{
  OFFSET 53.1873 95.914 10.4799
  CHANNELS 6 Xposition Yposition Zposition Zrotation Xrotation Yrotation
  JOINT spine
  {
    OFFSET 0 8.13249 0.467659
    CHANNELS 3 Zrotation Xrotation Yrotation
    JOINT spine1
    {
      OFFSET 0 10.3498 0
      CHANNELS 3 Zrotation Xrotation Yrotation
      JOINT spine2
      {
        OFFSET 0 9.91699 0
        CHANNELS 3 Zrotation Xrotation Yrotation
        JOINT Neck
        {
          OFFSET 0 25.461 1.2139
          CHANNELS 3 Zrotation Xrotation Yrotation
          JOINT Head
          {
            OFFSET 0 7.69245 0
            CHANNELS 3 Zrotation Xrotation Yrotation
            End Site
            {
              OFFSET 0 18.62 -6.14063
            }
          }
        }
        JOINT RightShoulder
        {
          OFFSET -4.17575 10.7096 -0.581445
          CHANNELS 3 Zrotation Xrotation Yrotation
          JOINT RightArm
          {
            OFFSET 0 14.0466 0
            CHANNELS 3 Zrotation Xrotation Yrotation
            JOINT RightArmRoll
            {
              OFFSET 0 7.09099 0
              CHANNELS 3 Zrotation Xrotation Yrotation
              JOINT RightForeArm
              {
                OFFSET 0 20.6535 0
                CHANNELS 3 Zrotation Xrotation Yrotation
                JOINT RightForeArmRoll
                {
                  OFFSET 0 7.95719 0
                  CHANNELS 3 Zrotation Xrotation Yrotation
                  JOINT RightHand
                  {
                    OFFSET 0 15.9683 0
                    CHANNELS 3 Zrotation Xrotation Yrotation
                    End Site
                    {
                      OFFSET 0 0 0
                    }
                  }
                }
              }
            }
          }
        }
        JOINT LeftShoulder
        {
          OFFSET 4.17575 10.7096 -0.581445
          CHANNELS 3 Zrotation Xrotation Yrotation
          JOINT LeftArm
          {
            OFFSET 0 14.0466 0
            CHANNELS 3 Zrotation Xrotation Yrotation
            JOINT LeftArmRoll
            {
              OFFSET 0 7.09099 0
              CHANNELS 3 Zrotation Xrotation Yrotation
              JOINT LeftForeArm
              {
                OFFSET 0 20.6535 0
                CHANNELS 3 Zrotation Xrotation Yrotation
                JOINT LeftForeArmRoll
                {
                  OFFSET 0 7.95718 0
                  CHANNELS 3 Zrotation Xrotation Yrotation
                  JOINT LeftHand
                  {
                    OFFSET 0 15.9683 0
                    CHANNELS 3 Zrotation Xrotation Yrotation
                    End Site
                    {
                      OFFSET 0 0 0
                    }
                  }
                }
              }
            }
          }
        }
      }
    }
  }
  JOINT RightUpLeg
  {
    OFFSET -7.20834 -1.32182 -1.10884
    CHANNELS 3 Zrotation Xrotation Yrotation
    JOINT RightUpLegRoll
    {
      OFFSET 0 18.7238 0
      CHANNELS 3 Zrotation Xrotation Yrotation
      JOINT RightLeg
      {
        OFFSET 0 -23.1866 0
        CHANNELS 3 Zrotation Xrotation Yrotation
        JOINT RightLegRoll
        {
          OFFSET 0 23.2624 0
          CHANNELS 3 Zrotation Xrotation Yrotation
          JOINT RightFoot
          {
            OFFSET 0 19.3621 0
            CHANNELS 3 Zrotation Xrotation Yrotation
            JOINT RightToeBase
            {
              OFFSET 0 16.1857 0
              CHANNELS 3 Zrotation Xrotation Yrotation
              End Site
              {
                OFFSET 0.00686052 7.83862 -0.903522
              }
            }
          }
        }
      }
    }
  }
  JOINT LeftUpLeg
  {
    OFFSET 7.20834 -1.32182 -1.10884
    CHANNELS 3 Zrotation Xrotation Yrotation
    JOINT LeftUpLegRoll
    {
      OFFSET 0 18.7239 0
      CHANNELS 3 Zrotation Xrotation Yrotation
      JOINT LeftLeg
      {
        OFFSET 0 23.1865 0
        CHANNELS 3 Zrotation Xrotation Yrotation
        JOINT LeftLegRoll
        {
          OFFSET 0 23.4775 0
          CHANNELS 3 Zrotation Xrotation Yrotation
          JOINT LeftFoot
          {
            OFFSET 0 19.147 0
            CHANNELS 3 Zrotation Xrotation Yrotation
            JOINT LeftToeBase
            {
              OFFSET 0 16.1857 0
              CHANNELS 3 Zrotation Xrotation Yrotation
              End Site
              {
                OFFSET -0.0307459 7.83863 -0.903521
              }
            }
          }
        }
      }
    }
  }
}
MOTION
Frames: 12
Frame Time: 0.00208333
53.1971 96.0224 8.34628 -0.757008 -3.88924 -0.604969 0.365778 -1.47299 0.0736811 0.73292 1.06556 0.09991 0.732195 2.71054 0.0975453 -5.75642 10.9604 -2.779 5.42388 -3.83697 -3.50041 59.7226 -8.24492 -5.14165 112.017 19.9649 17.4046 -1.77561e-006 -1.13975e-006 9.84888e-007 7.60137 0.0605217 -0.621112 6.84626e-006 -4.25145e-006 -3 8.02918 -4.95142 0.697667 -64.7781 -8.40203 5.35264 -106.503 18.1495 -9.28548 6.38282e-006 2.24726e-006 2.88288e-006 -8.6598 0.0702995 1.0822 1.40007e-005 -5.00007e-007 3.02908 -8.02908 -4.95146 -0.697698 172.608 2.61982 3.5592 -180 7.0156e-015 178.981 179.306 12.5094 179.494 -3.6278e-006 -6.39616e-006 0.11054 -18.0574 68.9316 20.3157 8.13649 25.2326 -3.48773 -171.844 1.63096 -2.50318 4.5067e-006 -1.99009e-005 -0.905132 -1.14794 -13.1851 0.542237 -8.67587e-007 6.00584e-006 -0.0927887 18.075 70.559 -21.7031 -8.13666 25.2351 3.4845 
53.2013 96.0249 8.34777 -0.757123 -3.8876 -0.604951 0.36569 -1.47424 0.073602 0.7341 1.06371 0.100515 0.733368 2.70869 0.0979482 -5.77513 10.966 -2.77858 5.43258 -3.83754 -3.50377 59.7021 -8.24671 -5.14227 112.035 19.9623 17.4119 -1.77561e-006 -1.13975e-006 9.84888e-007 7.59223 0.059912 -0.620577 6.84626e-006 -4.25145e-006 -3 8.02918 -4.95142 0.697667 -64.7891 -8.3965 5.34983 -106.498 18.1481 -9.29104 6.38282e-006 2.24726e-006 2.88288e-006 -8.65816 0.0702998 1.08249 1.40007e-005 -5.00007e-007 3.0291 -8.02908 -4.95146 -0.697698 172.606 2.62147 3.56051 -180 7.0156e-015 178.981 179.305 12.5096 179.495 -3.6278e-006 -6.39616e-006 0.11054 -18.0556 68.9308 20.3138 8.13649 25.2326 -3.48773 -171.845 1.6333 -2.50209 4.5067e-006 -1.99009e-005 -0.905132 -1.14745 -13.1849 0.542243 -8.67587e-007 6.00584e-006 -0.092798 18.0743 70.5582 -21.7026 -8.13666 25.2351 3.4845 
53.2009 96.0241 8.34681 -0.757272 -3.88587 -0.604939 0.36556 -1.47559 0.0734908 0.735284 1.06173 0.101124 0.734544 2.70672 0.0983631 -5.7936 10.9727 -2.77823 5.44091 -3.83901 -3.50717 59.6816 -8.24838 -5.14279 112.052 19.9598 17.4199 -1.77561e-006 -1.13975e-006 9.84888e-007 7.58252 0.0590044 -0.620048 6.84626e-006 -4.25145e-006 -3 8.02918 -4.95142 0.697667 -64.8001 -8.39091 5.34699 -106.492 18.1469 -9.29687 6.38282e-006 2.24726e-006 2.88288e-006 -8.65637 0.0703002 1.08289 1.40007e-005 -5.00007e-007 3.02914 -8.02908 -4.95146 -0.697698 172.605 2.62318 3.5619 -180 7.0156e-015 178.981 179.304 12.5098 179.495 -3.6278e-006 -6.39616e-006 0.11054 -18.0538 68.93 20.3117 8.13649 25.2326 -3.48773 -171.846 1.6357 -2.50097 4.5067e-006 -1.99009e-005 -0.905132 -1.14694 -13.1846 0.54225 -8.67587e-007 6.00584e-006 -0.0928119 18.0735 70.5573 -21.7019 -8.13666 25.2351 3.4845 
53.1994 96.0256 8.34447 -0.757446 -3.88408 -0.604929 0.365399 -1.47701 0.073357 0.736471 1.05967 0.101736 0.735723 2.70465 0.0987865 -5.81191 10.98 -2.77791 5.44897 -3.84111 -3.51062 59.6611 -8.24996 -5.14327 112.07 19.9575 17.4285 -1.77561e-006 -1.13975e-006 9.84888e-007 7.5724 0.0578882 -0.619521 6.84626e-006 -4.25145e-006 -3 8.02918 -4.95142 0.697667 -64.8111 -8.38529 5.34414 -106.486 18.1458 -9.3029 6.38282e-006 2.24726e-006 2.88288e-006 -8.65447 0.0703005 1.08337 1.40007e-005 -5.00007e-007 3.02918 -8.02908 -4.95146 -0.697698 172.603 2.62493 3.56334 -180 7.0156e-015 178.981 179.302 12.5099 179.495 -3.6278e-006 -6.39616e-006 0.11054 -18.0519 68.9291 20.3095 8.13649 25.2326 -3.48773 -171.847 1.63816 -2.49985 4.5067e-006 -1.99009e-005 -0.905132 -1.14643 -13.1842 0.542257 -8.67587e-007 6.00584e-006 -0.092829 18.0726 70.5564 -21.7012 -8.13666 25.2351 3.4845 
53.2011 96.0252 8.34472 -0.757632 -3.88225 -0.604921 0.365221 -1.47846 0.0732104 0.737658 1.05756 0.102348 0.736904 2.70254 0.0992146 -5.83013 10.9877 -2.77762 5.45688 -3.84358 -3.51408 59.6406 -8.25148 -5.14371 112.088 19.9552 17.4374 -1.77561e-006 -1.13975e-006 9.84888e-007 7.56204 0.0566529 -0.618997 6.84626e-006 -4.25145e-006 -3 8.02918 -4.95142 0.697667 -64.8221 -8.37964 5.34127 -106.481 18.1448 -9.30904 6.38282e-006 2.24726e-006 2.88288e-006 -8.65251 0.0703009 1.0839 1.40007e-005 -5.00007e-007 3.02923 -8.02908 -4.95146 -0.697698 172.601 2.62669 3.56482 -180 7.0156e-015 178.981 179.301 12.51 179.496 -3.6278e-006 -6.39616e-006 0.11054 -18.0501 68.9283 20.3073 8.13649 25.2326 -3.48773 -171.848 1.64063 -2.49871 4.5067e-006 -1.99009e-005 -0.905132 -1.14591 -13.1838 0.542265 -8.67587e-007 6.00584e-006 -0.0928479 18.0717 70.5554 -21.7005 -8.13666 25.2351 3.4845 
53.2018 96.0195 8.34824 -0.757823 -3.88042 -0.604913 0.365038 -1.47992 0.0730605 0.738847 1.05544 0.102961 0.738084 2.70042 0.0996439 -5.84832 10.9955 -2.77734 5.46476 -3.84613 -3.51755 59.6201 -8.25299 -5.14414 112.105 19.953 17.4463 -1.77561e-006 -1.13975e-006 9.84888e-007 7.55163 0.0553877 -0.618473 6.84626e-006 -4.25145e-006 -3 8.02918 -4.95142 0.697667 -64.8331 -8.37399 5.33839 -106.475 18.1439 -9.31521 6.38282e-006 2.24726e-006 2.88288e-006 -8.65053 0.0703013 1.08443 1.40007e-005 -5.00007e-007 3.02928 -8.02908 -4.95146 -0.697698 172.6 2.62847 3.56631 -180 7.0156e-015 178.981 179.299 12.5101 179.496 -3.6278e-006 -6.39616e-006 0.11054 -18.0482 68.9274 20.3051 8.13649 25.2326 -3.48773 -171.849 1.64312 -2.49758 4.5067e-006 -1.99009e-005 -0.905132 -1.14539 -13.1834 0.542273 -8.67587e-007 6.00584e-006 -0.0928672 18.0708 70.5544 -21.6997 -8.13666 25.2351 3.4845 
53.2054 96.0208 8.3471 -0.758006 -3.8786 -0.604905 0.364865 -1.48136 0.0729171 0.740035 1.05334 0.103574 0.739265 2.69832 0.100071 -5.86657 11.0031 -2.77704 5.47271 -3.84851 -3.52101 59.5996 -8.25453 -5.14459 112.123 19.9507 17.4551 -1.77561e-006 -1.13975e-006 9.84888e-007 7.54133 0.0541821 -0.617949 6.84626e-006 -4.25145e-006 -3 8.02918 -4.95142 0.697667 -64.8441 -8.36835 5.33553 -106.469 18.1429 -9.32132 6.38282e-006 2.24726e-006 2.88288e-006 -8.64859 0.0703016 1.08495 1.40007e-005 -5.00007e-007 3.02932 -8.02908 -4.95146 -0.697698 172.598 2.63023 3.56778 -180 7.0156e-015 178.981 179.298 12.5102 179.496 -3.6278e-006 -6.39616e-006 0.11054 -18.0464 68.9266 20.3029 8.13649 25.2326 -3.48773 -171.851 1.64559 -2.49645 4.5067e-006 -1.99009e-005 -0.905132 -1.14488 -13.183 0.54228 -8.67587e-007 6.00584e-006 -0.0928857 18.0699 70.5534 -21.6989 -8.13666 25.2351 3.4845 
53.2064 96.0219 8.34906 -0.758173 -3.87683 -0.604894 0.364713 -1.48275 0.0727897 0.74122 1.0513 0.104184 0.740443 2.69628 0.100492 -5.88492 11.0102 -2.77672 5.48085 -3.85043 -3.52444 59.5791 -8.25613 -5.14508 112.141 19.9483 17.4635 -1.77561e-006 -1.13975e-006 9.84888e-007 7.53133 0.0531255 -0.617422 6.84626e-006 -4.25145e-006 -3 8.02918 -4.95142 0.697667 -64.8551 -8.36274 5.33268 -106.464 18.1417 -9.3273 6.38282e-006 2.24726e-006 2.88288e-006 -8.64672 0.070302 1.08541 1.40007e-005 -5.00007e-007 3.02936 -8.02908 -4.95146 -0.697698 172.597 2.63197 3.56921 -180 7.0156e-015 178.981 179.296 12.5103 179.497 -3.6278e-006 -6.39616e-006 0.11054 -18.0446 68.9257 20.3008 8.13649 25.2326 -3.48773 -171.852 1.64803 -2.49532 4.5067e-006 -1.99009e-005 -0.905132 -1.14436 -13.1826 0.542287 -8.67587e-007 6.00584e-006 -0.0929018 18.0691 70.5525 -21.6982 -8.13666 25.2351 3.4845 
53.2014 96.0202 8.34894 -0.758312 -3.87512 -0.60488 0.364595 -1.48407 0.0726881 0.742403 1.04936 0.104792 0.741618 2.69434 0.100903 -5.90347 11.0166 -2.77634 5.48929 -3.85163 -3.52783 59.5586 -8.25784 -5.14564 112.158 19.9458 17.4714 -1.77561e-006 -1.13975e-006 9.84888e-007 7.52179 0.0523073 -0.616891 6.84626e-006 -4.25145e-006 -3 8.02918 -4.95142 0.697667 -64.8661 -8.35717 5.32985 -106.458 18.1405 -9.33304 6.38282e-006 2.24726e-006 2.88288e-006 -8.64497 0.0703023 1.08577 1.40007e-005 -5.00007e-007 3.02939 -8.02908 -4.95146 -0.697698 172.595 2.63365 3.57057 -180 7.0156e-015 178.981 179.295 12.5104 179.497 -3.6278e-006 -6.39616e-006 0.11054 -18.0428 68.9249 20.2988 8.13649 25.2326 -3.48773 -171.853 1.65041 -2.49422 4.5067e-006 -1.99009e-005 -0.905132 -1.14386 -13.1824 0.542294 -8.67587e-007 6.00584e-006 -0.0929144 18.0683 70.5516 -21.6976 -8.13666 25.2351 3.4845 
53.1988 96.0168 8.34089 -0.758414 -3.87352 -0.604861 0.364524 -1.48529 0.0726219 0.743582 1.04756 0.105396 0.74279 2.69254 0.101301 -5.92226 11.0218 -2.7759 5.49814 -3.85183 -3.53117 59.5381 -8.25969 -5.14628 112.176 19.9431 17.4783 -1.77561e-006 -1.13975e-006 9.84888e-007 7.51289 0.0518168 -0.616354 6.84626e-006 -4.25145e-006 -3 8.02918 -4.95142 0.697667 -64.8771 -8.35165 5.32705 -106.452 18.139 -9.33849 6.38282e-006 2.24726e-006 2.88288e-006 -8.6434 0.0703026 1.08601 1.40007e-005 -5.00007e-007 3.02941 -8.02908 -4.95146 -0.697698 172.594 2.63528 3.57185 -180 7.0156e-015 178.981 179.294 12.5107 179.497 -3.6278e-006 -6.39616e-006 0.11054 -18.041 68.9241 20.2969 8.13649 25.2326 -3.48773 -171.854 1.65272 -2.49313 4.5067e-006 -1.99009e-005 -0.905132 -1.14337 -13.1822 0.5423 -8.67587e-007 6.00584e-006 -0.0929219 18.0677 70.5508 -21.6972 -8.13666 25.2351 3.4845 
53.1778 96.0148 8.3428 -0.758468 -3.87204 -0.604836 0.364513 -1.48638 0.0726008 0.744756 1.04593 0.105995 0.743956 2.69091 0.101683 -5.94138 11.0258 -2.77538 5.50751 -3.85076 -3.53442 59.5175 -8.26172 -5.14703 112.194 19.9401 17.4842 -1.77561e-006 -1.13975e-006 9.84888e-007 7.5048 0.0517434 -0.615811 6.84626e-006 -4.25145e-006 -3 8.02918 -4.95142 0.697667 -64.8881 -8.34621 5.3243 -106.447 18.1373 -9.34354 6.38282e-006 2.24726e-006 2.88288e-006 -8.64204 0.0703028 1.0861 1.40007e-005 -5.00007e-007 3.02941 -8.02908 -4.95146 -0.697698 172.592 2.63683 3.573 -180 7.0156e-015 178.981 179.293 12.511 179.497 -3.6278e-006 -6.39616e-006 0.11054 -18.0393 68.9234 20.2952 8.13649 25.2326 -3.48773 -171.855 1.65493 -2.49207 4.5067e-006 -1.99009e-005 -0.905132 -1.1429 -13.1823 0.542306 -8.67587e-007 6.00584e-006 -0.092923 18.0672 70.5502 -21.6968 -8.13666 25.2351 3.4845 
53.1873 96.0055 8.30539 -0.758465 -3.87071 -0.604803 0.364576 -1.48732 0.0726344 0.745924 1.0445 0.106589 0.745116 2.68948 0.102044 -5.96089 11.028 -2.77476 5.51753 -3.84816 -3.53759 59.4969 -8.26397 -5.14793 112.211 19.9368 17.4888 -1.77561e-006 -1.13975e-006 9.84888e-007 7.49771 0.0521766 -0.61526 6.84626e-006 -4.25145e-006 -3 8.02918 -4.95142 0.697667 -64.899 -8.34086 5.32159 -106.441 18.1352 -9.34811 6.38282e-006 2.24726e-006 2.88288e-006 -8.64095 0.0703031 1.08599 1.40007e-005 -5.00007e-007 3.0294 -8.02908 -4.95146 -0.697698 172.591 2.63829 3.57402 -180 7.0156e-015 178.981 179.292 12.5114 179.498 -3.6278e-006 -6.39616e-006 0.11054 -18.0377 68.9227 20.2938 8.13649 25.2326 -3.48773 -171.856 1.65703 -2.49104 4.5067e-006 -1.99009e-005 -0.905132 -1.14245 -13.1825 0.54231 -8.67587e-007 6.00584e-006 -0.0929164 18.0669 70.5497 -21.6967 -8.13666 25.2351 3.4845 
